<svg xmlns="http://www.w3.org/2000/svg" xmlns:svg="http://www.w3.org/2000/svg" xmlns:xlink="http://www.w3.org/1999/xlink" id="svg8" width="210mm" height="297mm" version="1.1" viewBox="0 0 210 297"><defs id="defs2"><linearGradient id="linearGradient842"><stop style="stop-color:#000;stop-opacity:1" id="stop838" offset="0"/><stop style="stop-color:#000;stop-opacity:0" id="stop840" offset="1"/></linearGradient><linearGradient id="linearGradient920" x1="22.679" x2="70.304" y1="121.241" y2="66.057" gradientUnits="userSpaceOnUse" xlink:href="#linearGradient842"/><linearGradient id="linearGradient922" x1="22.679" x2="70.304" y1="121.241" y2="66.057" gradientUnits="userSpaceOnUse" xlink:href="#linearGradient842"/><linearGradient id="linearGradient924" x1="22.679" x2="70.304" y1="121.241" y2="66.057" gradientTransform="matrix(0.7155793,0,0,0.7155793,14.151706,48.330061)" gradientUnits="userSpaceOnUse" xlink:href="#linearGradient842"/><linearGradient id="linearGradient938" x1="22.679" x2="70.304" y1="121.241" y2="66.057" gradientUnits="userSpaceOnUse" xlink:href="#linearGradient842"/><linearGradient id="linearGradient4756" x1="22.679" x2="70.304" y1="121.241" y2="66.057" gradientUnits="userSpaceOnUse" xlink:href="#linearGradient842"/><linearGradient id="linearGradient4815" x1="22.679" x2="70.304" y1="121.241" y2="66.057" gradientUnits="userSpaceOnUse" xlink:href="#linearGradient842"/><linearGradient id="linearGradient4853" x1="22.679" x2="70.304" y1="121.241" y2="66.057" gradientUnits="userSpaceOnUse" xlink:href="#linearGradient842"/><linearGradient id="linearGradient1665" x1="22.679" x2="70.304" y1="121.241" y2="66.057" gradientTransform="matrix(0.63488794,0,0,0.64408377,49.832937,66.702259)" gradientUnits="userSpaceOnUse" xlink:href="#linearGradient842"/></defs><metadata id="metadata5"/><g id="layer1"><g id="g1581" transform="matrix(0.99991323,0,0,1.0000006,-106.58735,-72.571496)"><rect style="fill:#2ce0ff;fill-opacity:1;stroke:#000;stroke-width:.71557927;stroke-miterlimit:4;stroke-dasharray:none;stroke-opacity:1" id="rect884" width="76.814" height="52.201" x="22.536" y="88.837" ry="20.421"/><path style="opacity:.41100003;fill:url(#linearGradient924);fill-opacity:1;stroke:#000;stroke-width:.18933034;stroke-opacity:1" id="path886" d="M 33.599536,91.088485 C 27.01852,94.471295 22.536284,101.32147 22.536284,109.25754 v 11.35983 c 0,11.31303 9.107654,20.42068 20.420684,20.42068 h 35.972767 c 5.962028,0 11.310613,-2.53012 15.037343,-6.57886 -2.800363,1.43945 -5.980469,2.25125 -9.357433,2.25125 H 48.636879 c -11.313031,0 -20.420684,-9.10728 -20.420684,-20.42031 v -11.35982 c 0,-5.350978 2.038584,-10.20803 5.383341,-13.841825 z"/><ellipse style="opacity:.19500002;fill:#000;fill-opacity:1;stroke:#000;stroke-width:.71557933;stroke-miterlimit:4;stroke-dasharray:none;stroke-opacity:1" id="ellipse888" cx="-7.316" cy="131.953" rx="2.164" ry="5.95" transform="rotate(-44.761019)"/><ellipse id="ellipse890" cx="52.598" cy="133.561" rx=".954" ry="2.622" transform="matrix(0.94006726,-0.34098907,0.33335873,0.94280006,0,0)" style="opacity:.19500002;fill:#000;fill-opacity:1;stroke:#000;stroke-width:.3153511;stroke-miterlimit:4;stroke-dasharray:none;stroke-opacity:1"/><ellipse style="opacity:.19500002;fill:#000;fill-opacity:1;stroke:#000;stroke-width:.35816482;stroke-miterlimit:4;stroke-dasharray:none;stroke-opacity:1" id="ellipse892" cx="-87.788" cy="107.877" rx="1.084" ry="2.975" transform="matrix(0.33120157,-0.94356002,0.99479629,0.101884,0,0)"/></g><g id="g906" transform="translate(-207.13095,106.58929)"><rect id="rect896" width="107.345" height="72.949" x="11.717" y="56.607" ry="28.537" style="fill:#0f0;fill-opacity:1;stroke:#000;stroke-width:1;stroke-miterlimit:4;stroke-dasharray:none;stroke-opacity:1"/><path id="path898" d="M 27.177743,59.753579 C 17.980975,64.480952 11.717189,74.053866 11.717189,85.144278 v 15.875002 c 0,15.80961 12.727665,28.53727 28.537276,28.53727 h 50.270832 c 8.331751,0 15.806233,-3.53576 21.014223,-9.19375 -3.91342,2.01159 -8.35752,3.14606 -13.076723,3.14606 H 48.191965 c -15.809611,0 -28.537276,-12.72715 -28.537276,-28.536758 v -15.875 c 0,-7.477826 2.848859,-14.265407 7.523054,-19.343523 z" style="opacity:.41100003;fill:url(#linearGradient922);fill-opacity:1;stroke:#000;stroke-width:.26458332;stroke-opacity:1"/><ellipse id="ellipse900" cx="23.292" cy="122.517" rx="3.024" ry="8.315" transform="rotate(-44.761019)" style="opacity:.19500002;fill:#000;fill-opacity:1;stroke:#000;stroke-width:1;stroke-miterlimit:4;stroke-dasharray:none;stroke-opacity:1"/><ellipse style="opacity:.19500002;fill:#000;fill-opacity:1;stroke:#000;stroke-width:.44069344;stroke-miterlimit:4;stroke-dasharray:none;stroke-opacity:1" id="ellipse902" cx="77.373" cy="116.409" rx="1.333" ry="3.665" transform="matrix(0.94006726,-0.34098907,0.33335873,0.94280006,0,0)"/><ellipse id="ellipse904" cx="-55.657" cy="108.56" rx="1.515" ry="4.158" transform="matrix(0.33120158,-0.94356002,0.99479629,0.101884,0,0)" style="opacity:.19500002;fill:#000;fill-opacity:1;stroke:#000;stroke-width:.50052428;stroke-miterlimit:4;stroke-dasharray:none;stroke-opacity:1"/></g><g id="g918" transform="translate(-224.51786,1.1339294)"><rect style="fill:#0f0;fill-opacity:1;stroke:#000;stroke-width:1;stroke-miterlimit:4;stroke-dasharray:none;stroke-opacity:1" id="rect908" width="107.345" height="72.949" x="11.717" y="56.607" ry="28.537"/><path style="opacity:.41100003;fill:url(#linearGradient920);fill-opacity:1;stroke:#000;stroke-width:.26458332;stroke-opacity:1" id="path910" d="M 27.177743,59.753579 C 17.980975,64.480952 11.717189,74.053866 11.717189,85.144278 v 15.875002 c 0,15.80961 12.727665,28.53727 28.537276,28.53727 h 50.270832 c 8.331751,0 15.806233,-3.53576 21.014223,-9.19375 -3.91342,2.01159 -8.35752,3.14606 -13.076723,3.14606 H 48.191965 c -15.809611,0 -28.537276,-12.72715 -28.537276,-28.536758 v -15.875 c 0,-7.477826 2.848859,-14.265407 7.523054,-19.343523 z"/><ellipse style="opacity:.19500002;fill:#000;fill-opacity:1;stroke:#000;stroke-width:1;stroke-miterlimit:4;stroke-dasharray:none;stroke-opacity:1" id="ellipse912" cx="23.292" cy="122.517" rx="3.024" ry="8.315" transform="rotate(-44.761019)"/><ellipse id="ellipse914" cx="77.373" cy="116.409" rx="1.333" ry="3.665" transform="matrix(0.94006726,-0.34098907,0.33335873,0.94280006,0,0)" style="opacity:.19500002;fill:#000;fill-opacity:1;stroke:#000;stroke-width:.44069344;stroke-miterlimit:4;stroke-dasharray:none;stroke-opacity:1"/><ellipse style="opacity:.19500002;fill:#000;fill-opacity:1;stroke:#000;stroke-width:.50052428;stroke-miterlimit:4;stroke-dasharray:none;stroke-opacity:1" id="ellipse916" cx="-55.657" cy="108.56" rx="1.515" ry="4.158" transform="matrix(0.33120158,-0.94356002,0.99479629,0.101884,0,0)"/></g><g id="g4715" transform="translate(-128.13393,-60.476191)"><g id="g936" transform="matrix(0.63488794,0,0,0.64408377,43.029364,109.03559)"><rect style="fill:#0f0;fill-opacity:1;stroke:#000;stroke-width:1;stroke-miterlimit:4;stroke-dasharray:none;stroke-opacity:1" id="rect926" width="107.345" height="72.949" x="11.717" y="56.607" ry="28.537"/><path style="opacity:.41100003;fill:url(#linearGradient938);fill-opacity:1;stroke:#000;stroke-width:.26458332;stroke-opacity:1" id="path928" d="M 27.177743,59.753579 C 17.980975,64.480952 11.717189,74.053866 11.717189,85.144278 v 15.875002 c 0,15.80961 12.727665,28.53727 28.537276,28.53727 h 50.270832 c 8.331751,0 15.806233,-3.53576 21.014223,-9.19375 -3.91342,2.01159 -8.35752,3.14606 -13.076723,3.14606 H 48.191965 c -15.809611,0 -28.537276,-12.72715 -28.537276,-28.536758 v -15.875 c 0,-7.477826 2.848859,-14.265407 7.523054,-19.343523 z"/><ellipse style="opacity:.19500002;fill:#000;fill-opacity:1;stroke:#000;stroke-width:1;stroke-miterlimit:4;stroke-dasharray:none;stroke-opacity:1" id="ellipse930" cx="23.292" cy="122.517" rx="3.024" ry="8.315" transform="rotate(-44.761019)"/><ellipse id="ellipse932" cx="77.373" cy="116.409" rx="1.333" ry="3.665" transform="matrix(0.94006726,-0.34098907,0.33335873,0.94280006,0,0)" style="opacity:.19500002;fill:#000;fill-opacity:1;stroke:#000;stroke-width:.44069344;stroke-miterlimit:4;stroke-dasharray:none;stroke-opacity:1"/><ellipse style="opacity:.19500002;fill:#000;fill-opacity:1;stroke:#000;stroke-width:.50052428;stroke-miterlimit:4;stroke-dasharray:none;stroke-opacity:1" id="ellipse934" cx="-55.657" cy="108.56" rx="1.515" ry="4.158" transform="matrix(0.33120158,-0.94356002,0.99479629,0.101884,0,0)"/></g><text id="text942" x="55.644" y="182.354" transform="scale(1.0334006,0.96767894)" xml:space="preserve" style="font-style:italic;font-variant:normal;font-weight:500;font-stretch:normal;font-size:25.82565117px;line-height:1.25;font-family:'URW Chancery L';-inkscape-font-specification:'URW Chancery L, Medium Italic';font-variant-ligatures:normal;font-variant-caps:normal;font-variant-numeric:normal;font-feature-settings:normal;text-align:start;letter-spacing:0;word-spacing:0;writing-mode:lr-tb;text-anchor:start;fill:#050;fill-opacity:1;stroke:none;stroke-width:.13450858"><tspan style="font-style:italic;font-variant:normal;font-weight:500;font-stretch:normal;font-size:25.82565117px;font-family:'URW Chancery L';-inkscape-font-specification:'URW Chancery L, Medium Italic';font-variant-ligatures:normal;font-variant-caps:normal;font-variant-numeric:normal;font-feature-settings:normal;text-align:start;writing-mode:lr-tb;text-anchor:start;fill:#050;fill-opacity:1;stroke-width:.13450858" id="tspan940" x="55.644" y="182.354">Done</tspan></text></g><g id="g4774" transform="translate(-142.31675,2.5820447)"><g id="g4748" transform="matrix(0.63488794,0,0,0.64408377,60.794245,101.47607)"><rect id="rect4738" width="107.345" height="72.949" x="11.717" y="56.607" ry="28.537" style="fill:#0f0;fill-opacity:1;stroke:#000;stroke-width:1;stroke-miterlimit:4;stroke-dasharray:none;stroke-opacity:1"/><path id="path4740" d="M 27.177743,59.753579 C 17.980975,64.480952 11.717189,74.053866 11.717189,85.144278 v 15.875002 c 0,15.80961 12.727665,28.53727 28.537276,28.53727 h 50.270832 c 8.331751,0 15.806233,-3.53576 21.014223,-9.19375 -3.91342,2.01159 -8.35752,3.14606 -13.076723,3.14606 H 48.191965 c -15.809611,0 -28.537276,-12.72715 -28.537276,-28.536758 v -15.875 c 0,-7.477826 2.848859,-14.265407 7.523054,-19.343523 z" style="opacity:.41100003;fill:url(#linearGradient4756);fill-opacity:1;stroke:#000;stroke-width:.26458332;stroke-opacity:1"/><ellipse id="ellipse4742" cx="23.292" cy="122.517" rx="3.024" ry="8.315" transform="rotate(-44.761019)" style="opacity:.19500002;fill:#000;fill-opacity:1;stroke:#000;stroke-width:1;stroke-miterlimit:4;stroke-dasharray:none;stroke-opacity:1"/><ellipse style="opacity:.19500002;fill:#000;fill-opacity:1;stroke:#000;stroke-width:.44069344;stroke-miterlimit:4;stroke-dasharray:none;stroke-opacity:1" id="ellipse4744" cx="77.373" cy="116.409" rx="1.333" ry="3.665" transform="matrix(0.94006726,-0.34098907,0.33335873,0.94280006,0,0)"/><ellipse id="ellipse4746" cx="-55.657" cy="108.56" rx="1.515" ry="4.158" transform="matrix(0.33120158,-0.94356002,0.99479629,0.101884,0,0)" style="opacity:.19500002;fill:#000;fill-opacity:1;stroke:#000;stroke-width:.50052428;stroke-miterlimit:4;stroke-dasharray:none;stroke-opacity:1"/></g><text style="font-style:italic;font-variant:normal;font-weight:500;font-stretch:normal;font-size:25.82565117px;line-height:1.25;font-family:'URW Chancery L';-inkscape-font-specification:'URW Chancery L, Medium Italic';font-variant-ligatures:normal;font-variant-caps:normal;font-variant-numeric:normal;font-feature-settings:normal;text-align:start;letter-spacing:0;word-spacing:0;writing-mode:lr-tb;text-anchor:start;fill:#050;fill-opacity:1;stroke:none;stroke-width:.13450858" id="text4752" x="76.44" y="172.709" transform="scale(1.0334006,0.96767894)" xml:space="preserve"><tspan id="tspan4750" x="76.44" y="172.709" style="font-style:italic;font-variant:normal;font-weight:500;font-stretch:normal;font-size:25.82565117px;font-family:'URW Chancery L';-inkscape-font-specification:'URW Chancery L, Medium Italic';font-variant-ligatures:normal;font-variant-caps:normal;font-variant-numeric:normal;font-feature-settings:normal;text-align:start;writing-mode:lr-tb;text-anchor:start;fill:#050;fill-opacity:1;stroke-width:.13450858">Exit</tspan></text></g><g id="g4807" transform="matrix(0.63488794,0,0,0.64408377,-87.372421,218.27071)"><rect id="rect4797" width="107.345" height="72.949" x="11.717" y="56.607" ry="28.537" style="fill:#0f0;fill-opacity:1;stroke:#000;stroke-width:1;stroke-miterlimit:4;stroke-dasharray:none;stroke-opacity:1"/><path id="path4799" d="M 27.177743,59.753579 C 17.980975,64.480952 11.717189,74.053866 11.717189,85.144278 v 15.875002 c 0,15.80961 12.727665,28.53727 28.537276,28.53727 h 50.270832 c 8.331751,0 15.806233,-3.53576 21.014223,-9.19375 -3.91342,2.01159 -8.35752,3.14606 -13.076723,3.14606 H 48.191965 c -15.809611,0 -28.537276,-12.72715 -28.537276,-28.536758 v -15.875 c 0,-7.477826 2.848859,-14.265407 7.523054,-19.343523 z" style="opacity:.41100003;fill:url(#linearGradient4815);fill-opacity:1;stroke:#000;stroke-width:.26458332;stroke-opacity:1"/><ellipse id="ellipse4801" cx="23.292" cy="122.517" rx="3.024" ry="8.315" transform="rotate(-44.761019)" style="opacity:.19500002;fill:#000;fill-opacity:1;stroke:#000;stroke-width:1;stroke-miterlimit:4;stroke-dasharray:none;stroke-opacity:1"/><ellipse style="opacity:.19500002;fill:#000;fill-opacity:1;stroke:#000;stroke-width:.44069344;stroke-miterlimit:4;stroke-dasharray:none;stroke-opacity:1" id="ellipse4803" cx="77.373" cy="116.409" rx="1.333" ry="3.665" transform="matrix(0.94006726,-0.34098907,0.33335873,0.94280006,0,0)"/><ellipse id="ellipse4805" cx="-55.657" cy="108.56" rx="1.515" ry="4.158" transform="matrix(0.33120158,-0.94356002,0.99479629,0.101884,0,0)" style="opacity:.19500002;fill:#000;fill-opacity:1;stroke:#000;stroke-width:.50052428;stroke-miterlimit:4;stroke-dasharray:none;stroke-opacity:1"/></g><g id="g4851" transform="translate(-131.91369,130.77976)"><g id="g4845" transform="matrix(0.63488794,0,0,0.64408377,51.344841,27.770713)"><rect id="rect4835" width="107.345" height="72.949" x="11.717" y="56.607" ry="28.537" style="fill:#0f0;fill-opacity:1;stroke:#000;stroke-width:1;stroke-miterlimit:4;stroke-dasharray:none;stroke-opacity:1"/><path id="path4837" d="M 27.177743,59.753579 C 17.980975,64.480952 11.717189,74.053866 11.717189,85.144278 v 15.875002 c 0,15.80961 12.727665,28.53727 28.537276,28.53727 h 50.270832 c 8.331751,0 15.806233,-3.53576 21.014223,-9.19375 -3.91342,2.01159 -8.35752,3.14606 -13.076723,3.14606 H 48.191965 c -15.809611,0 -28.537276,-12.72715 -28.537276,-28.536758 v -15.875 c 0,-7.477826 2.848859,-14.265407 7.523054,-19.343523 z" style="opacity:.41100003;fill:url(#linearGradient4853);fill-opacity:1;stroke:#000;stroke-width:.26458332;stroke-opacity:1"/><ellipse id="ellipse4839" cx="23.292" cy="122.517" rx="3.024" ry="8.315" transform="rotate(-44.761019)" style="opacity:.19500002;fill:#000;fill-opacity:1;stroke:#000;stroke-width:1;stroke-miterlimit:4;stroke-dasharray:none;stroke-opacity:1"/><ellipse style="opacity:.19500002;fill:#000;fill-opacity:1;stroke:#000;stroke-width:.44069344;stroke-miterlimit:4;stroke-dasharray:none;stroke-opacity:1" id="ellipse4841" cx="77.373" cy="116.409" rx="1.333" ry="3.665" transform="matrix(0.94006726,-0.34098907,0.33335873,0.94280006,0,0)"/><ellipse id="ellipse4843" cx="-55.657" cy="108.56" rx="1.515" ry="4.158" transform="matrix(0.33120158,-0.94356002,0.99479629,0.101884,0,0)" style="opacity:.19500002;fill:#000;fill-opacity:1;stroke:#000;stroke-width:.50052428;stroke-miterlimit:4;stroke-dasharray:none;stroke-opacity:1"/></g><text style="font-style:italic;font-variant:normal;font-weight:500;font-stretch:normal;font-size:25.82565117px;line-height:1.25;font-family:'URW Chancery L';-inkscape-font-specification:'URW Chancery L, Medium Italic';font-variant-ligatures:normal;font-variant-caps:normal;font-variant-numeric:normal;font-feature-settings:normal;text-align:start;letter-spacing:0;word-spacing:0;writing-mode:lr-tb;text-anchor:start;fill:#050;fill-opacity:1;stroke:none;stroke-width:.13450858" id="text4849" x="66.15" y="97.29" transform="scale(1.0334006,0.96767894)" xml:space="preserve"><tspan id="tspan4847" x="66.15" y="97.29" style="font-style:italic;font-variant:normal;font-weight:500;font-stretch:normal;font-size:25.82565117px;font-family:'URW Chancery L';-inkscape-font-specification:'URW Chancery L, Medium Italic';font-variant-ligatures:normal;font-variant-caps:normal;font-variant-numeric:normal;font-feature-settings:normal;text-align:start;writing-mode:lr-tb;text-anchor:start;fill:#050;fill-opacity:1;stroke-width:.13450858">New</tspan></text></g><g id="g1726"><rect id="rect1647" width="68.152" height="46.986" x="57.272" y="103.162" ry="18.38" style="fill:#2ce0ff;fill-opacity:1;stroke:#000;stroke-width:.63946933;stroke-miterlimit:4;stroke-dasharray:none;stroke-opacity:1"/><path id="path1649" d="m 67.087758,105.18857 c -5.838917,3.04482 -9.815719,9.21058 -9.815719,16.35374 v 10.22483 c 0,10.18271 8.080641,18.38039 18.117972,18.38039 h 31.916349 c 5.28972,0 10.03518,-2.27733 13.34167,-5.92155 -2.48458,1.29564 -5.30609,2.02633 -8.30225,2.02633 H 80.429434 c -10.037331,0 -18.117972,-8.19735 -18.117972,-18.38006 v -10.22483 c 0,-4.81635 1.808706,-9.18812 4.776296,-12.45885 z" style="opacity:.41100003;fill:url(#linearGradient1665);fill-opacity:1;stroke:#000;stroke-width:.16919291;stroke-opacity:1"/><ellipse id="ellipse1651" cx="3.902" cy="160.73" rx="1.934" ry="5.318" transform="matrix(0.70496876,-0.70923836,0.69902844,0.71509387,0,0)" style="opacity:.19500002;fill:#000;fill-opacity:1;stroke:#000;stroke-width:.63950241;stroke-miterlimit:4;stroke-dasharray:none;stroke-opacity:1"/><ellipse style="opacity:.19500002;fill:#000;fill-opacity:1;stroke:#000;stroke-width:.28182623;stroke-miterlimit:4;stroke-dasharray:none;stroke-opacity:1" id="ellipse1653" cx="74.314" cy="154.679" rx=".847" ry="2.357" transform="matrix(0.93847665,-0.3453427,0.32911811,0.94428876,0,0)"/><ellipse id="ellipse1655" cx="-98.636" cy="139.695" rx=".974" ry="2.64" transform="matrix(0.32698174,-0.94503066,0.99464567,0.10334405,0,0)" style="opacity:.19500002;fill:#000;fill-opacity:1;stroke:#000;stroke-width:.31984499;stroke-miterlimit:4;stroke-dasharray:none;stroke-opacity:1"/><text id="text1661" x="62.539" y="135.193" transform="scale(1.0334006,0.96767894)" xml:space="preserve" style="font-style:italic;font-variant:normal;font-weight:500;font-stretch:normal;font-size:18.93695641px;line-height:1.25;font-family:'URW Chancery L';-inkscape-font-specification:'URW Chancery L, Medium Italic';font-variant-ligatures:normal;font-variant-caps:normal;font-variant-numeric:normal;font-feature-settings:normal;text-align:start;letter-spacing:0;word-spacing:0;writing-mode:lr-tb;text-anchor:start;fill:#050;fill-opacity:1;stroke:none;stroke-width:.09862996"><tspan style="font-style:italic;font-variant:normal;font-weight:500;font-stretch:normal;font-size:18.93695641px;font-family:'URW Chancery L';-inkscape-font-specification:'URW Chancery L, Medium Italic';font-variant-ligatures:normal;font-variant-caps:normal;font-variant-numeric:normal;font-feature-settings:normal;text-align:start;writing-mode:lr-tb;text-anchor:start;fill:#050;fill-opacity:1;stroke-width:.09862996" id="tspan1659" x="62.539" y="135.193">Restart</tspan></text></g></g></svg>